<svg xmlns="http://www.w3.org/2000/svg" width="1024" height="1024"><path d="M144 518.964V920h742V797.023l-39.455-.262-39.456-.261 8.409-12c11.71-16.712 17.271-26.224 27.478-47 15.355-31.257 23.166-55.695 29.886-93.5 10.363-58.299 12.451-142.329 5.095-205-4.003-34.106-13.946-78.532-23.723-106-11.652-32.736-27.615-63.747-45.854-89.081-38.286-53.179-93.947-92.02-157.38-109.821-22.506-6.316-42.436-9.947-75.5-13.758-13.65-1.572-33.742-1.759-223.25-2.07L144 117.929v401.035m248-.464V738h40.42c22.232 0 47.319-.471 55.75-1.046 16.459-1.122 41.38-4.403 45.071-5.933 1.242-.515 6.984-5.277 12.759-10.582 12.789-11.748 38.268-33.103 54.5-45.677 13.77-10.668 15.193-12.818 20.524-31.021 9.281-31.688 13.848-81.117 12.577-136.121-.354-15.335-.888-28.275-1.185-28.756-.843-1.364-8.504 4.384-14.555 10.92-9.939 10.735-17.786 29.62-21.549 51.86l-1.779 10.513-4.016-.541c-2.21-.298-35.967-3.089-75.017-6.202s-71.198-5.84-71.44-6.06c-.84-.765 3.148-22.931 6.605-36.711 9.704-38.676 22.139-62.577 43.787-84.157 24.811-24.734 55.076-39.432 95.919-46.583 5.979-1.047 11.915-1.903 13.191-1.903 3.612 0 3.821-1.667.853-6.78-21.546-37.117-63.51-58.367-124.81-63.203-7.093-.559-29.705-1.017-50.25-1.017H392v219.5" fill="undefined" fill-rule="evenodd"/></svg>